<svg xmlns="http://www.w3.org/2000/svg" viewBox="0 0 64 64" fill="none">
  <path d="M8 14C8 9.6 11.6 6 16 6H38C42.4 6 46 9.6 46 14V28C46 32.4 42.4 36 38 36H24L14 44V36H16C11.6 36 8 32.4 8 28V14Z" fill="#10B981" fill-opacity="0.25" stroke="#10B981" stroke-width="2.5"/>
  <path d="M22 22H48C52.4 22 56 25.6 56 30V42C56 46.4 52.4 50 48 50H46V58L38 50H32" stroke="#FBBF24" stroke-width="2.5" stroke-linecap="round" stroke-linejoin="round"/>
  <circle cx="19" cy="21" r="3" fill="#34D399"/>
  <circle cx="27" cy="21" r="3" fill="#34D399"/>
  <circle cx="35" cy="21" r="3" fill="#34D399"/>
</svg>